<svg width="500" height="500" viewBox="0 0 500 500" fill="none" xmlns="http://www.w3.org/2000/svg">
<g clip-path="url(#clip0_1109_441)">
<rect width="500" height="500" rx="250" fill="white"/>
<path d="M13.3467 500.344C27.7896 466.644 91.1333 437.714 121 427.461C125.235 435.931 140.926 458.085 169.812 478.947C198.697 499.809 225.533 551.83 235.34 575.233L222.635 983.78L235.34 1034.6C202.576 1072.93 127.285 1143.32 88.2358 1118.18C49.1865 1093.04 -16.7427 940.541 -44.8262 867.435C-31.4531 759.113 -1.09625 534.044 13.3467 500.344Z" fill="#CBCBE7"/>
<path d="M627.84 910.025L571.673 513.513L389.799 393.824L347.674 566.337L336.975 678.002L379.101 900.663L320.928 994.943L417.214 1058.47C421.449 1052 452.385 1028.11 542.252 984.245C632.119 940.381 636.755 916.488 627.84 910.025Z" fill="#CBCBE7"/>
<path d="M115.042 469.955C159.441 477.979 195.058 515.646 207.317 533.477L235.401 578.276H342.385L362.445 539.495C365.119 531.248 376.219 501.248 399.221 447.22C427.973 379.686 401.227 359.627 362.445 335.555C323.663 311.484 207.317 300.785 139.783 325.526C72.2486 350.266 59.5442 459.925 115.042 469.955Z" fill="white"/>
<path d="M171.817 382.982C176.498 370.278 192.769 365.82 195.889 367.603V399.03L225.978 431.794L265.429 463.889L285.489 499.016L299.53 460.234L327.614 418.109V390.694L333.632 375.315L358.372 386.994L344.33 526.074C350.749 581.171 352.354 821.618 384.449 894.502C300.868 1000.82 282.145 998.143 216.617 998.143C213.274 985.439 237.346 642.108 234.671 571.23C232.531 514.529 203.913 443.829 163.125 418.109C166.468 406.296 169.15 390.221 171.817 382.982Z" fill="black"/>
<path d="M207.317 533.477C195.058 515.646 159.441 477.979 115.042 469.955C59.5442 459.925 72.2486 350.266 139.783 325.526C207.317 300.785 323.663 311.484 362.445 335.555C401.227 359.627 427.973 379.686 399.221 447.22C376.219 501.248 365.119 531.248 362.445 539.495" stroke="black" stroke-width="8.13967" stroke-linecap="round" stroke-linejoin="round"/>
<path d="M421.895 414.408C460.231 432.462 542.921 476.86 566.992 510.025C591.064 543.191 618.479 793.98 629.177 915.229C630.737 925.928 611.391 956.686 521.524 994.13C431.657 1031.57 417.66 1050.3 421.895 1054.98C394.257 1033.8 335.371 990.653 320.928 987.444C302.875 983.432 419.889 847.695 457.333 828.304C487.289 812.792 517.066 821.841 528.21 828.304M457.333 681.201L447.972 802.227M457.333 631.72C468.032 609.209 497.185 556.965 528.21 528.079M59.4845 457.202C38.0876 459.876 -4.97366 495.449 -6.0435 616.341C-7.11335 737.234 -34.1269 836.551 -47.5 871.098L20.7026 1020.21C36.5274 1057.43 73.5262 1129.47 94.9231 1119.84C121.669 1107.8 141.06 1054.98 201.908 1054.98C262.755 1054.98 118.995 964.71 123.007 839.003C126.216 738.437 131.476 700.369 133.705 693.905M212.606 1012.18C220.407 1011.74 236.009 1007.5 236.009 994.13C236.009 977.414 246.707 610.992 236.009 569.536C225.311 528.079 227.316 486.623 175.162 431.124C164.24 423.323 147.613 399.163 168.475 364.928M355.029 389.668C357.035 409.95 358.506 462.417 348.343 510.025C338.179 557.634 348.566 652.449 355.029 693.905L373.083 887.815" stroke="black" stroke-width="8.13967" stroke-linecap="round" stroke-linejoin="round"/>
<path d="M355.697 205.119L351.016 226.516C353.593 224.39 352.915 227.512 356.365 226.015C364.849 222.333 374.039 223.065 374.419 240.558C374.954 265.164 359.486 283.352 351.685 289.37C355.251 304.303 356.767 339.117 334.3 358.91C324.27 364.927 326.276 376.294 319.589 361.584C318.252 384.987 318.921 394.348 312.234 384.987C305.548 375.626 299.53 382.981 300.867 392.342C302.204 401.703 288.832 391.005 286.826 381.644C284.82 372.283 287.494 396.354 278.133 396.354C270.644 396.354 266.543 388.776 265.429 384.987C258.475 386.592 258.074 390.559 258.742 392.342C253.616 391.228 243.229 386.993 242.694 378.969C226.646 375.18 193.615 359.578 189.871 327.483C189.871 320.796 132.367 290.707 153.763 259.949C157.871 254.044 166.612 254.709 173.758 261.577L153.095 238.552L158.445 116.857L199.233 91.4482L229.322 98.1348H319.589L363.053 138.923L378.432 190.409L355.697 205.119Z" fill="white"/>
<path d="M198.563 349.548V397.691C212.828 414.184 246.439 450.381 266.766 463.219L284.82 495.314L298.193 457.201C306.885 451.406 325.206 433.798 328.951 409.727V360.915" stroke="black" stroke-width="9.36115" stroke-linecap="round" stroke-linejoin="round"/>
<path d="M127.018 255.268C150.02 283.619 121.669 301.405 96.9287 301.405L103.615 269.978C103.615 269.978 57.3446 262.757 51.4604 223.173C45.5763 183.588 71.2971 172.355 84.8931 171.686C78.6523 162.102 64.5658 136.649 79.5437 111.507C94.5215 86.366 115.651 84.9842 121.669 87.4359C122.115 78.0747 128.222 58.6837 149.084 56.0091C169.946 53.3345 186.305 60.2439 191.877 64.033C194.106 50.6599 193.756 30.3943 209.931 26.5884C232.665 21.2391 257.405 24.5824 261.417 56.0091C272.116 40.4072 295.945 18.5594 321.596 32.6062C349.68 47.9853 341.656 67.5991 337.644 73.3941C347.674 64.2559 381.909 62.2945 395.817 95.4596C409.725 128.625 390.913 142.265 385.118 148.952C396.931 153.187 419.219 173.157 408.521 197.764C397.823 222.37 388.016 223.173 385.118 223.173C372.815 223.173 365.282 211.583 363.053 205.788C334.167 199.368 330.066 171.463 331.626 158.313C285.623 162.592 285.712 134.687 291.507 120.2C250.318 165.133 226.202 133.127 219.292 111.507C212.16 109.279 199.367 110.571 205.251 133.573C220.229 183.321 178.505 202.444 155.77 205.788C166.469 240.023 141.06 253.039 127.018 255.268Z" fill="#CBCBE7"/>
<path d="M114.982 297.393C128.578 295.164 150.02 283.619 127.018 255.268C141.06 253.039 166.469 240.023 155.77 205.788C178.505 202.444 220.228 183.321 205.251 133.573M219.292 111.507C226.202 133.127 250.318 165.133 291.507 120.2C285.712 134.687 285.623 162.592 331.626 158.313C330.066 171.463 334.167 199.368 363.053 205.788M103.615 269.978C88.6821 270.87 57.3446 262.757 51.4604 223.173C45.5763 183.588 71.2971 172.355 84.8931 171.686C78.6523 162.102 64.5658 136.649 79.5437 111.507C94.5215 86.366 115.651 84.9842 121.669 87.4359C122.115 78.0747 128.222 58.6837 149.084 56.0091C169.946 53.3345 186.305 60.2439 191.877 64.033C194.106 50.6599 193.756 30.3943 209.931 26.5884C232.665 21.2391 257.405 24.5824 261.417 56.0091C272.116 40.4072 295.945 18.5594 321.596 32.6062C349.68 47.9853 341.656 67.5991 337.644 73.3941C347.674 64.2559 381.909 62.2945 395.817 95.4596C409.725 128.625 390.913 142.265 385.118 148.952C396.931 153.187 419.219 173.157 408.521 197.764C397.823 222.37 388.016 223.173 385.118 223.173" stroke="black" stroke-width="8.13967" stroke-linecap="round" stroke-linejoin="round"/>
<path d="M300.314 196.898C304.385 192.074 315.564 185.132 327.713 195.953" stroke="black" stroke-width="8.13967" stroke-linecap="round"/>
<path d="M193.313 217.734C197.469 211.351 209.712 201.236 225.44 211.848" stroke="black" stroke-width="8.13967" stroke-linecap="round"/>
<path d="M265.075 299.062C269.868 300.831 280.554 302.583 284.956 295.431" stroke="black" stroke-width="8.13967" stroke-linecap="round" stroke-linejoin="round"/>
<path d="M261.418 336.175C268.773 339.296 285.623 342.594 294.182 330.826" stroke="black" stroke-width="8.13967" stroke-linecap="round"/>
<path d="M355.697 205.12L351.016 226.517C353.594 224.391 352.915 227.513 356.365 226.016C364.85 222.334 374.039 223.065 374.419 240.559C374.954 265.165 359.486 283.353 351.685 289.37C355.251 304.304 356.767 339.118 334.3 358.91C324.27 364.928 326.276 376.295 319.59 361.585C318.252 384.988 318.921 394.349 312.234 384.988C305.548 375.627 299.53 382.982 300.867 392.343C302.205 401.704 288.832 391.006 286.826 381.645C284.82 372.283 287.495 396.355 278.134 396.355C270.645 396.355 266.544 388.777 265.429 384.988C258.475 386.593 258.074 390.56 258.743 392.343C253.616 391.229 243.229 386.994 242.694 378.97C226.647 375.181 193.615 359.579 189.871 327.484C189.871 320.797 132.367 290.708 153.763 259.95C158.415 253.263 169.008 255.002 176.497 264.63" stroke="black" stroke-width="8.13967" stroke-linecap="round" stroke-linejoin="round"/>
<path d="M303.543 467.9C311.567 473.918 328.149 488.629 330.289 499.327C332.429 510.026 341.433 490.857 345.668 479.936" stroke="#CBCBE7" stroke-width="8.02384" stroke-linecap="round" stroke-linejoin="round"/>
<path d="M233.335 505.345C239.13 495.761 252.592 476.058 260.081 473.918" stroke="#CBCBE7" stroke-width="8.02384" stroke-linecap="round" stroke-linejoin="round"/>
<ellipse cx="215.281" cy="253.931" rx="6.68653" ry="10.6985" transform="rotate(-7.49537 215.281 253.931)" fill="black"/>
<ellipse cx="315.58" cy="241.339" rx="6.68653" ry="10.6985" transform="rotate(-7.49537 315.58 241.339)" fill="black"/>
<path d="M283.484 235.877C282.37 229.636 286.426 217.289 311.568 217.823C336.709 218.358 345.669 220.721 347.007 221.835C349.013 234.094 349.548 259.815 335.64 264.629C321.732 269.443 305.773 268.864 299.532 267.972C294.629 266.412 284.554 257.809 283.484 235.877ZM283.484 235.877C274.569 233.648 248.047 231.865 245.372 242.564M245.372 242.564C244.837 223.841 230.66 229.191 208.596 230.528C177.837 235.208 173.07 238.005 181.181 263.961C187.867 285.357 209.933 284.689 226.649 280.677C243.366 276.665 246.04 265.966 245.372 242.564Z" stroke="black" stroke-width="8.13967" stroke-linecap="round" stroke-linejoin="round"/>
<path d="M278.134 208.463C272.785 210.023 263.156 218.359 267.436 239.221C271.715 260.083 276.351 276.888 278.134 282.683" stroke="black" stroke-width="8.13967" stroke-linecap="round"/>
</g>
<defs>
<clipPath id="clip0_1109_441">
<rect width="500" height="500" rx="250" fill="white"/>
</clipPath>
</defs>
</svg>
